<?xml version="1.0" encoding="utf-8" ?><svg xmlns="http://www.w3.org/2000/svg" xmlns:xlink="http://www.w3.org/1999/xlink" width="7301" height="7301" viewBox="0 0 7301 7301"><path fill="#E5BF73" transform="matrix(1.78247 0 0 1.78247 0 -0.00012207)" d="M1675.84 1549.94L1675.72 1364.53C1675.71 1326.57 1674.26 1277.38 1677.54 1240.85C1686.44 1143.53 1728.15 1052.11 1795.83 981.603C1875.46 898.483 1984.92 850.512 2100 848.299C2214.38 846.077 2324.99 889.249 2407.62 968.371C2489.09 1045.88 2536.79 1152.33 2540.41 1264.72C2609.86 1245.69 2672.77 1273.87 2705.08 1338.3C2672.99 1383.8 2638.15 1428.76 2608.22 1475.6C2587.74 1507.66 2573.89 1545.59 2552.98 1577.58C2487.74 1682.58 2393.07 1751.39 2270.38 1772.33C2239.31 1777.63 2214.6 1778.34 2183.33 1779.41C2174.91 1780.13 2150.81 1777.2 2141.46 1776.36C2090.13 1771.72 2045.27 1758.21 1996.84 1742.55C1948.96 1727.4 1901.74 1710.27 1855.28 1691.21C1795.48 1666.77 1737.12 1640.05 1675.83 1619.29C1570.84 1590.15 1496.61 1595.02 1390.93 1605.05C1487.49 1562.28 1571.62 1549.17 1675.84 1549.94Z"/><path fill="#171516" transform="matrix(1.78247 0 0 1.78247 0 -0.00012207)" d="M1767.97 1244.28C1928.48 1143.72 2112.09 1143.58 2270.81 1243.69C2319.93 1274.68 2357.64 1311.2 2414.2 1330.78C2473.05 1321.36 2479.73 1285.03 2540.41 1264.72C2609.86 1245.69 2672.77 1273.87 2705.08 1338.3C2672.99 1383.8 2638.15 1428.76 2608.22 1475.6C2587.74 1507.66 2573.89 1545.59 2552.98 1577.58C2487.74 1682.58 2393.07 1751.39 2270.38 1772.33C2239.31 1777.63 2214.6 1778.34 2183.33 1779.41C2174.91 1780.13 2150.81 1777.2 2141.46 1776.36C2090.13 1771.72 2045.27 1758.21 1996.84 1742.55C1948.96 1727.4 1901.74 1710.27 1855.28 1691.21C1795.48 1666.77 1737.12 1640.05 1675.83 1619.29C1570.84 1590.15 1496.61 1595.02 1390.93 1605.05C1487.49 1562.28 1571.62 1549.17 1675.84 1549.94C1701.98 1550.93 1728.06 1553.29 1753.96 1556.99C1814.31 1565.93 1980.9 1603.18 2033.25 1569.64C2064.45 1549.66 2095.43 1508.83 2103.45 1472.37C2109.96 1442.78 2102.12 1412.64 2085.56 1387.8C2026.82 1299.68 1866.95 1264.19 1767.97 1244.28Z"/><path fill="#E5BF73" transform="matrix(1.78247 0 0 1.78247 0 -0.00012207)" d="M1675.83 1619.29C1737.12 1640.05 1795.48 1666.77 1855.28 1691.21C1901.74 1710.27 1948.96 1727.4 1996.84 1742.55C2045.27 1758.21 2090.13 1771.72 2141.46 1776.36C2150.81 1777.2 2174.91 1780.13 2183.33 1779.41C2314.99 1794.97 2454.51 1752.95 2541.35 1649.68L2541.35 2040.16L1675.84 2040.16L1675.83 1619.29Z"/><path fill="#171516" transform="matrix(1.78247 0 0 1.78247 0 -0.00012207)" d="M2627.27 2312.95L2629.46 2312.85C2669.57 2311.34 2730.21 2310.05 2761.48 2339.36C2791.34 2367.36 2789.64 2421.84 2761.11 2450.15C2732.57 2478.46 2674.05 2473.8 2636.65 2473.75C2636.69 2505.28 2630.5 2564.81 2644.63 2594.2C2648.08 2601.38 2659.91 2602.51 2667.42 2603.55C2672.85 2603.38 2674.54 2603.56 2679.96 2604.21C2684.9 2608.59 2684.01 2606.07 2684.68 2611.25C2676.35 2615.26 2562.35 2614.26 2548.65 2612.91L2547.82 2607.71C2552.07 2601.52 2573.44 2606.12 2588.31 2593.49C2597.3 2568.36 2594.54 2378.74 2590.66 2340.84C2588.57 2320.47 2559.06 2330.34 2548.93 2324.95C2548.05 2318.55 2547.04 2320.34 2549.28 2316.12C2568.11 2313.57 2606.88 2313.51 2627.27 2312.95ZM2636.65 2462.19C2665.48 2462.3 2695.72 2465.47 2718.31 2445.4C2728.52 2432.49 2734.8 2421.38 2735.9 2404.61C2740.83 2329.65 2697.88 2322.5 2636.65 2324.18L2636.65 2462.19Z"/><path fill="#171516" transform="matrix(1.78247 0 0 1.78247 0 -0.00012207)" d="M2894.66 2310.42C2910.52 2312.41 2914.48 2341.16 2920.99 2355.16C2956.5 2431.53 2984.41 2511.94 3021.17 2587.61C3027.93 2601.53 3044.27 2597.64 3052.37 2608.04L3051.75 2612.9L3051.75 2612.89C3037.87 2614.5 2945.05 2615.44 2935.14 2612.62L2934.51 2607.76C2952.05 2591.73 2991.11 2620.87 2957.05 2547.66C2950.98 2534.6 2944.24 2517.46 2938.44 2503.91L2907 2503.91L2825.7 2503.91C2817.29 2524 2804.47 2551.2 2801.46 2572.36C2797.18 2602.53 2823.24 2596.15 2833.36 2608.83L2832.87 2613.09C2817.65 2614.39 2750.96 2619.12 2743.98 2606.57C2747.42 2602.17 2752.63 2602.66 2759.15 2599.74C2765.76 2596.78 2776.01 2589.06 2779.23 2582.79C2793.2 2555.61 2805.77 2523.31 2817.58 2495.11L2894.66 2310.42ZM2830.02 2493.88L2885 2493.88L2934.7 2493.88C2927.51 2476.22 2889.92 2378.7 2881.33 2369.29L2830.02 2493.88Z"/><path fill="#171516" transform="matrix(1.78247 0 0 1.78247 0 -0.00012207)" d="M1196.18 2310.68C1200.37 2311.31 1204.45 2310.9 1206.18 2314.88C1213.29 2331.25 1220.8 2349.34 1227.63 2365.62L1290.21 2515.01C1299.45 2536.99 1308.21 2558.88 1318.54 2580.37C1325.3 2594.44 1351.87 2603.84 1353.48 2612.55C1350.72 2612.93 1339.48 2614.26 1337.08 2613.96C1323.87 2612.27 1241.13 2616.65 1235.37 2611.09L1235.95 2607.46C1264.93 2589.5 1288.45 2618.47 1258.85 2548.57C1252.69 2534.03 1246.3 2518.53 1240.13 2503.91L1209 2503.91L1127.21 2503.91C1118.9 2523.6 1098.02 2565.78 1104.23 2586.4C1108.76 2601.42 1129.08 2602.37 1144.64 2609.12L1146.93 2610.13C1132.57 2613.68 1051.34 2617.07 1045.83 2611.39C1051.21 2602.99 1079.07 2588.34 1083.54 2578.83C1094.48 2555.55 1105.48 2527.53 1115.38 2503.86L1196.18 2310.68ZM1131.49 2493.88L1187 2493.88L1236.16 2493.88C1229.74 2478.21 1189.55 2376.06 1182.77 2369.25L1131.49 2493.88Z"/><path fill="#171516" transform="matrix(1.78247 0 0 1.78247 0 -0.00012207)" d="M2053.04 2310.79C2054.1 2310.92 2057.19 2311.24 2058.08 2311.6C2070.86 2316.76 2158.35 2550.26 2177.41 2583.41C2183.25 2593.57 2189.41 2598.35 2200.68 2601.42C2204.45 2602.45 2207.21 2602.96 2210.41 2605.31C2211.19 2610.88 2211.93 2608.57 2209.63 2612.77C2190.03 2615.16 2117.19 2614.24 2095.07 2613.42L2093.17 2609.97L2094.26 2606.52C2118.11 2590.68 2147.12 2620.2 2115.63 2547.65C2109.51 2533.55 2103.25 2518.15 2097.21 2503.91L2067 2503.91L1984.25 2503.91C1975.75 2524.23 1954.29 2567.57 1961.95 2587.87C1967.15 2601.67 1987.18 2602.4 2001.78 2609L2003.87 2609.97C1984.54 2616.17 1910.52 2615.53 1890.91 2610.78C1908.03 2601.39 1928 2599.74 1937.7 2581.88C1953.53 2552.77 1965.52 2520.9 1978.32 2490.24L2053.04 2310.79ZM1988.33 2493.88L2043 2493.88L2093.45 2493.88C2077.08 2454.49 2058.24 2405.36 2040.66 2367.37C2023.39 2409.3 2006.15 2452.27 1988.33 2493.88Z"/><path fill="#171516" transform="matrix(1.78247 0 0 1.78247 0 -0.00012207)" d="M728.784 2316.23C750.394 2313.85 796.818 2315.15 820.243 2315.22C877.584 2392.97 938.14 2470.53 996.154 2548.1L996.389 2413.72C996.411 2393.67 997.066 2372.65 995.942 2352.72C994.569 2328.36 954.908 2329.6 945.648 2319.12L947.011 2316.13C971.62 2315.06 1045.94 2312.31 1065.95 2319.22C1048.86 2329.18 1014.72 2326.27 1009.75 2350.11C1005.93 2368.48 1007.21 2391.79 1007.23 2410.89L1007.52 2550.66C1007.56 2569.28 1008.85 2612.6 1005.38 2628.88C997.901 2620.82 988.791 2608.26 981.903 2599.27C918.176 2519.25 848.873 2423.34 787.19 2341.01L787.156 2498.25C787.137 2522.14 786.5 2546.33 787.018 2570.19C787.709 2602.03 831.665 2599.07 839.589 2608.77L838.204 2612.3C814.826 2613.6 734.962 2616.7 716.517 2608.67C732.182 2600.2 759.677 2602.69 770.788 2587.47C778.922 2576.33 778.875 2356.86 771.742 2339.44C763.957 2320.42 747.565 2330.66 733.597 2324.23C730.513 2322.81 730.041 2319.17 728.784 2316.23Z"/><path fill="#171516" transform="matrix(1.78247 0 0 1.78247 0 -0.00012207)" d="M2192.34 2316.27C2204.25 2314.17 2316.18 2314.94 2330.15 2316.23L2332.21 2319.81L2330.79 2323.55C2322.75 2327.37 2313.72 2325.25 2305.12 2326.49C2299.46 2327.3 2293.41 2330.15 2290.38 2335.24C2279.71 2353.2 2284.01 2520.08 2289.16 2546.92C2292.77 2565.74 2300.04 2578.64 2316.47 2589.21C2340.78 2604.87 2375.32 2606.68 2402.97 2599.64C2425.72 2593.84 2445.51 2581.37 2457.11 2560.5C2463.41 2549.17 2466.25 2536.87 2467.75 2524.11C2470.79 2498.17 2471.8 2368.5 2465.51 2348.74C2457.72 2324.26 2432.14 2329.85 2413.6 2320.25C2412.99 2319.93 2412.39 2319.58 2411.78 2319.25C2426.96 2314.82 2431.51 2315.22 2447 2315.22C2468.77 2315.01 2516.65 2312.59 2535.66 2319.28C2512.26 2332.41 2503.28 2319.91 2482.76 2347.11C2472.3 2400.4 2490.04 2501.43 2472.81 2556.28C2465.97 2578.04 2446.15 2596.86 2425.31 2606.3C2389.94 2622.33 2336.1 2622.6 2300.15 2608.63C2236.69 2583.97 2241.48 2531.16 2241.85 2475.73L2242.42 2386.41C2242.39 2286.03 2206.15 2349 2192.34 2316.27Z"/><path fill="#171516" transform="matrix(1.78247 0 0 1.78247 0 -0.00012207)" d="M1330.08 2315.22L1619.73 2315.22C1619.97 2335.43 1623.59 2382 1617.4 2398.6C1602.08 2369.26 1605.82 2324.38 1560.42 2325.51C1539.52 2326.03 1517.41 2325.51 1496.38 2325.62L1496.26 2482.86C1496.25 2509.28 1494.41 2568.47 1500.38 2591.22C1515.86 2608.54 1540.44 2597.6 1549.23 2610.16L1547.32 2612.44C1529.52 2613.3 1405.53 2615.89 1400.09 2610.41L1400.3 2606.12C1409.46 2599.03 1450.26 2611.86 1452.77 2574.88C1454.44 2550.15 1453.53 2525.28 1453.53 2500.46L1453.47 2325.62C1381.3 2326.14 1354.56 2310.64 1336.75 2386.02C1336.28 2388.03 1334.6 2387.5 1333.15 2387.37C1325.85 2377.9 1329.57 2330.26 1330.08 2315.22Z"/><path fill="#171516" transform="matrix(1.78247 0 0 1.78247 0 -0.00012207)" d="M1640.09 2316.24C1656.19 2314.37 1769.21 2314.09 1783.99 2317.11L1785.74 2320.67C1775.39 2328.12 1734.54 2322.29 1734.07 2346.59C1732.68 2418.6 1733.21 2490.76 1733.66 2562.81C1734.2 2569.22 1734.64 2591.75 1740.19 2594.95C1764.28 2608.84 1808.69 2602.71 1834.93 2600.16C1852.52 2598.45 1865.94 2578 1873.26 2564.91C1879.84 2553.16 1882.93 2537.26 1890.63 2526.42L1895.93 2525.63L1898.91 2527.57L1896.84 2613.34C1868.99 2613.33 1651.59 2616.41 1643.56 2610.73L1644.21 2606.31C1655.43 2597.85 1685.79 2607.28 1687.99 2583.05C1691.67 2542.67 1690.07 2501.41 1690.28 2460.79C1690.47 2423.14 1690.99 2384.74 1688.67 2347.21C1686.69 2322.55 1665.11 2327.43 1648 2325.31C1642.69 2324.64 1642.11 2320.57 1640.09 2316.24Z"/><path fill="#171516" transform="matrix(1.78247 0 0 1.78247 0 -0.00012207)" d="M1431.2 3042.39C1451.34 3040.98 1466.19 3039.88 1485.2 3049.55C1501.32 3057.58 1513.49 3071.81 1518.91 3088.98C1532.67 3132.76 1508.81 3165.89 1467.55 3179.2C1449.77 3181.39 1432.41 3181.43 1415.78 3173.97C1398.21 3166.22 1384.76 3151.37 1378.8 3133.11C1364.32 3088.86 1388.94 3054.87 1431.2 3042.39ZM1455.55 3175.4C1469.6 3172.22 1482.03 3166.97 1488.9 3153.66C1510.91 3111 1501 3043 1441.13 3046.44C1427.41 3049.61 1414.36 3055.18 1407.99 3068.38C1386.61 3112.69 1395.6 3176.93 1455.55 3175.4Z"/><path fill="#171516" transform="matrix(1.78247 0 0 1.78247 0 -0.00012207)" d="M2733.51 3042.31C2752.87 3040.97 2767.06 3040.06 2785.4 3048.93C2801.52 3056.55 2813.89 3070.34 2819.73 3087.18C2834.74 3130.89 2811.22 3165.01 2769.91 3179.02C2750.09 3181.39 2732.96 3181.85 2714.62 3172.76C2697.64 3164.4 2684.96 3149.29 2679.67 3131.12C2666.68 3086.79 2691.32 3054.06 2733.51 3042.31ZM2757.6 3175.34C2771.43 3172.04 2783.67 3166.75 2790.42 3153.59C2812.22 3111.07 2802.72 3043.72 2743.28 3046.38C2729.25 3049.42 2716.25 3054.74 2709.6 3068.13C2687.76 3112.12 2697.12 3177.74 2757.6 3175.34Z"/><path fill="#171516" transform="matrix(1.78247 0 0 1.78247 0 -0.00012207)" d="M390.526 2816.93C441.489 2815.17 500.01 2816.48 551.697 2816.49L845.933 2816.52L1742.34 2816.51L3055.28 2816.5L3503.82 2816.52C3565.54 2816.56 3627.41 2816.9 3689.12 2816.19C3698.18 2816.08 3700.25 2815.65 3705.17 2820.73L1417.49 2820.72L714.247 2820.7L495.801 2820.7C471.922 2820.71 413.997 2822.38 393.093 2820.18L390.526 2816.93Z"/><path fill="#171516" transform="matrix(1.78247 0 0 1.78247 0 -0.00012207)" d="M3072.3 3175.7C3080.58 3172.84 3084.65 3174.76 3092.78 3169.19C3099.66 3155.92 3098.69 3062.78 3088.94 3049.31C3084.53 3048.62 3081.2 3047.94 3076.85 3046.94L3077.34 3044.37C3089.62 3040.36 3112.19 3043.24 3125.48 3041.46C3176.69 3034.64 3216.15 3093.93 3150.18 3110.01L3147.59 3110.62C3182.95 3144.35 3175.56 3163.76 3228.05 3177.65L3180.19 3177.96C3166.7 3164.6 3134.54 3111.04 3118.61 3115.79C3112.54 3126.33 3113.34 3163.58 3123.25 3174.06C3117.84 3176.94 3082.26 3175.67 3072.3 3175.7ZM3115.86 3108.39C3132.54 3108.08 3140.77 3108.99 3155.43 3100.38C3175.35 3060.94 3152.89 3046.93 3115.86 3047.39L3115.86 3108.39Z"/><path fill="#171516" transform="matrix(1.78247 0 0 1.78247 0 -0.00012207)" d="M2260.36 3043.15C2288.45 3042.08 2348.5 3034.9 2350.54 3075.58C2352.63 3117.39 2314.72 3114.87 2284.82 3114.99C2284.74 3133.66 2284.18 3151.85 2286.69 3170.38C2292.47 3171.85 2300.31 3172.59 2303.05 3176.48C2293.8 3179.66 2246.56 3177.94 2233.54 3177.76C2240.39 3175.53 2262.05 3172.59 2263.04 3165.75C2265.72 3147.26 2268.94 3068.06 2262.76 3054.14C2254.78 3046.7 2249.42 3050.3 2244.55 3045.34C2248.9 3043.13 2255.02 3043.49 2260.36 3043.15ZM2322.53 3101.77C2343.36 3064.56 2322.17 3047.07 2284.82 3047.85C2284.61 3065.27 2280.94 3095.19 2289.68 3108.29C2300.91 3113.66 2312.86 3109.02 2322.53 3101.77Z"/><path fill="#171516" transform="matrix(1.78247 0 0 1.78247 0 -0.00012207)" d="M1132.72 3042.76C1183.5 3054.38 1184.03 3096.16 1134.51 3111.36C1152.28 3127.6 1162.89 3146.18 1179.26 3163.35C1184.69 3169.05 1201.75 3172.64 1203.48 3177.14C1190.34 3178.22 1180.06 3178.1 1166.91 3177.96C1151.55 3162.91 1123.73 3114.58 1105.83 3113.83C1097.59 3122.79 1101.69 3158.48 1106.72 3169.34C1111.33 3173.46 1111.17 3173.07 1117.24 3174.66C1108.85 3175.53 1081.99 3177.15 1075.11 3174.08C1076.18 3173 1080.3 3168.91 1080.57 3167.59C1084.93 3145.99 1085.5 3063.71 1078.71 3047.79L1079.9 3045.79C1084.58 3044.66 1100.33 3043.22 1103.94 3046.69C1101.19 3056.86 1102.4 3095.45 1102.48 3108.38C1116.95 3108.2 1130.61 3109.7 1140.89 3098.06C1161.28 3074.99 1147.45 3052.21 1120.52 3046.88L1132.72 3042.76Z"/><path fill="#171516" transform="matrix(1.78247 0 0 1.78247 0 -0.00012207)" d="M1623.39 3043.83L1691.54 3043.84C1681.83 3047.43 1671.14 3049.71 1664.34 3056.61C1658.45 3075.72 1662.34 3160.19 1661.32 3186.29C1627.8 3143.07 1595.53 3099.09 1562.28 3055.79C1562.12 3089.52 1561.75 3123.55 1562.1 3157.28C1562.2 3166.99 1577.75 3172.83 1585.25 3176.19C1576.68 3179.38 1537.25 3177.93 1525.4 3177.73C1536.26 3174.26 1546.14 3172.72 1554.37 3165.73C1560.43 3152.32 1559.95 3059.43 1551.02 3047.98C1554.1 3046.13 1570.98 3046.25 1578.42 3045.14L1656.16 3148.1C1656.3 3130.2 1658.62 3067.4 1652.92 3054.83C1644.6 3048.76 1633.5 3047.41 1623.39 3043.83Z"/><path fill="#171516" transform="matrix(1.78247 0 0 1.78247 0 -0.00012207)" d="M950.648 3047.91C940.986 3063.12 945.558 3125.76 946.423 3146.22C950.486 3175.27 984.966 3178.49 1007.08 3168.07C1034.31 3155.24 1026.2 3124.67 1027.61 3100.4C1028.41 3086.64 1028.75 3072.8 1026 3059.64C1024.24 3051.18 1013.76 3050.08 1007.66 3046.9L1009.09 3045.41C1019.97 3043.16 1040.12 3042.38 1051.05 3044.4L1050.93 3047.49C1043.7 3050.42 1033.43 3056.03 1033.08 3065.61C1030.72 3130.35 1048.45 3199.51 950.232 3175.37C907.226 3164.79 936.037 3089.08 922.783 3054.56C919.056 3050.27 911.667 3048.26 906.035 3046.05L905.767 3044.27L910.076 3046.14L911.912 3043.31L917.27 3044.21C929.454 3047.81 946.732 3045.12 950.648 3047.91Z"/><path fill="#171516" transform="matrix(1.78247 0 0 1.78247 0 -0.00012207)" d="M2867.94 3042.37C2900.94 3038.83 2904.2 3053.56 2913.51 3053.38L2917.89 3044.38L2920.81 3044.35C2922.86 3051.69 2921.7 3078.88 2921.58 3088.13C2912.09 3066.87 2909.05 3049.05 2882.93 3046.09C2869.99 3042.69 2854.19 3060.39 2859.19 3072.08C2870.86 3099.33 2928.03 3100.16 2933.27 3133.72C2937.69 3161.98 2920.59 3176.81 2893.62 3180.85C2865.95 3179.41 2864.52 3167.64 2853.8 3165.56C2851.79 3169.51 2849.97 3173 2847.77 3176.85L2844.99 3175.07C2842.9 3162.84 2844.6 3137.18 2845.06 3123.75C2856 3151.32 2864.91 3190.29 2907.17 3170.51C2914.82 3166.93 2922.23 3152.08 2918.21 3143.9C2905.74 3118.57 2870.21 3116.74 2852.79 3095.38C2833.75 3073.94 2845.39 3055.47 2867.94 3042.37Z"/><path fill="#171516" transform="matrix(1.78247 0 0 1.78247 0 -0.00012207)" d="M638.902 3047.92L638.462 3048.65C628.069 3065.3 636.757 3091.83 633.691 3107.54C616.141 3197.44 724.6 3195.78 716.105 3113.85C713.609 3089.76 727.574 3056.55 696.771 3047.5L697.003 3044.9C706.112 3043.02 730.77 3042.75 739.303 3045.34L738.587 3047.54C717.843 3054.51 718.367 3077.06 720.75 3097.23C727.93 3158.02 707.85 3194.69 638.191 3175.67C595.117 3163.91 625.446 3081.2 609.094 3047.98C614.176 3045.09 633.58 3045.36 638.902 3047.92Z"/><path fill="#171516" transform="matrix(1.78247 0 0 1.78247 0 -0.00012207)" d="M812.299 3114.73C799.713 3098.79 770.576 3058.7 753.185 3050.02C750.655 3048.76 749.531 3048.35 746.286 3046.14L748.124 3044.36C760.608 3043.27 790.595 3043.03 802.735 3044.62L802.811 3047.25C796.767 3049.01 795.652 3048.53 791.193 3052.42C792.564 3064.94 816.131 3089.91 825.571 3098.93L828.66 3102.98L829.838 3104.66C843.28 3123.56 866.548 3151.21 883.178 3168.01C884.716 3169.57 895.969 3173.39 898.8 3174.36L898.314 3176.48C888.945 3178.6 841.212 3179.22 833.57 3176.8L834.217 3174.13C839.02 3172.82 842.57 3172.05 847.463 3171.11L850.229 3168.06C848.833 3153.51 825.302 3131.9 816.427 3117.77L812.299 3114.73Z"/><defs><linearGradient id="gradient_0" gradientUnits="userSpaceOnUse" x1="2523.2854" y1="3106.8225" x2="2415.3262" y2="3114.3975"><stop offset="0" stop-color="#221F20" stop-opacity="0.94901961"/><stop offset="1" stop-color="#231F20"/></linearGradient></defs><path fill="url(#gradient_0)" transform="matrix(1.78247 0 0 1.78247 0 -0.00012207)" d="M2523.54 3161.77C2510.79 3172.68 2500.39 3179.13 2483.1 3181.07C2466.33 3182.92 2449.54 3177.76 2436.69 3166.83C2406.12 3140.96 2404.93 3087.39 2431.62 3059.69C2456.32 3034.05 2498.98 3035.97 2523.45 3060.54L2521.06 3066.69C2478.93 3018.91 2437.82 3056.56 2435.33 3109.78C2432.68 3166.3 2482.94 3196.8 2519.1 3157.65L2523.54 3161.77Z"/><path fill="#171516" transform="matrix(1.78247 0 0 1.78247 0 -0.00012207)" d="M1873.02 3123.58C1880.33 3143.89 1887.8 3175.7 1914.97 3175.75C1922.26 3175.84 1935.44 3172.41 1940.1 3166.45C1965.75 3133.95 1913.12 3119.29 1892.75 3106.03C1867.97 3089.91 1862.92 3068.14 1887.29 3047.82L1889.81 3054.42C1878.44 3083.86 1911.77 3094.98 1933.82 3104C1982.32 3123.86 1961.95 3192.4 1911.64 3179.09C1903.76 3177 1885.53 3166.16 1881.14 3167.1L1876.79 3176.28L1874.07 3176.97C1869.87 3170.93 1872.65 3133.39 1873.02 3123.58Z"/><path fill="#171516" transform="matrix(1.78247 0 0 1.78247 0 -0.00012207)" d="M1236.4 3126.53C1223.19 3104.51 1207.61 3077.73 1192.99 3056.27C1191.47 3054.04 1182 3049.34 1178 3046.02L1180.27 3043.91C1196.62 3043.68 1214.01 3043.05 1230.21 3044.4L1231.43 3046.56C1225.61 3048.72 1220.69 3049.59 1217.4 3054.54C1217.4 3062.04 1247.63 3109.03 1253.77 3119.1L1258.04 3120.49C1255.06 3126.12 1254.85 3141.73 1254.28 3148.67C1253.44 3159.17 1261.34 3167.44 1268.24 3174.29L1270.25 3176.25C1265.24 3178.9 1223.51 3179.41 1218.94 3176.53C1222 3171.11 1222.81 3172.34 1230.22 3169.4C1239.61 3158.04 1236.67 3142.03 1236.4 3126.53Z"/><path fill="#171516" transform="matrix(1.78247 0 0 1.78247 0 -0.00012207)" d="M1690.61 3046.23C1698.05 3046.3 1724.13 3046.14 1729.87 3047.4C1729.8 3062.76 1728.87 3090.99 1731.22 3105.19L1730.31 3109.92C1729.69 3127.38 1725.07 3162.24 1738.19 3173.9C1732.31 3177.04 1697.28 3175.76 1687.9 3175.75C1695.93 3173.86 1700.48 3173.51 1707.09 3168.91C1712.28 3156.87 1711.44 3068.99 1708.07 3053.58C1703.67 3048.64 1697.34 3048 1690.61 3046.23Z"/><path fill="#171516" transform="matrix(1.78247 0 0 1.78247 0 -0.00012207)" d="M2118.11 3046.22C2125.37 3046.36 2151.43 3046.45 2157.53 3047.5C2157.46 3062.95 2156.51 3091.06 2158.95 3105.35L2158.29 3109.86C2157.32 3126.46 2152.68 3163.28 2166.04 3173.72C2160.66 3176.99 2125.35 3175.44 2115.64 3175.76C2123.65 3173.85 2128.45 3173.53 2134.77 3168.66C2140.11 3157.45 2139.23 3068.94 2135.68 3053.54C2130.73 3048.47 2125.17 3048.01 2118.11 3046.22Z"/><path fill="#171516" transform="matrix(1.78247 0 0 1.78247 0 -0.00012207)" d="M2569.17 3047.98C2575.21 3045.39 2592.41 3045.45 2598.86 3048.01C2590.45 3064.32 2593.22 3143.5 2595.61 3165.35C2596.06 3169.44 2600.6 3172.13 2604.28 3174.13C2598.33 3176.76 2572.75 3176.39 2566.55 3174.04C2579.1 3162.95 2577.44 3060.88 2569.17 3047.98Z"/><path fill="#171516" transform="matrix(1.78247 0 0 1.78247 0 -0.00012207)" d="M495.155 3047.99C501.202 3045.38 518.4 3045.44 524.86 3048.01C523.428 3050.74 520.481 3056.59 520.641 3059.58C521.771 3080.86 513.104 3161.77 527.391 3174.12C520.724 3176.58 499.195 3176.58 492.51 3174.04C505.041 3162.89 503.395 3060.93 495.155 3047.99Z"/><path fill="#171516" transform="matrix(1.78247 0 0 1.78247 0 -0.00012207)" d="M2032.02 3047.47C2040.73 3046.67 2043.15 3046.14 2051.61 3047.47C2051.48 3069.19 2046.2 3160.82 2057.72 3172.88C2058.11 3173.29 2058.56 3173.64 2058.97 3174.02C2053.56 3176.85 2030.47 3176.21 2024.46 3174.15C2025.06 3173.56 2025.69 3173 2026.25 3172.37C2037.68 3159.45 2032.15 3069.95 2032.02 3047.47Z"/><path fill="#171516" transform="matrix(1.78247 0 0 1.78247 0 -0.00012207)" d="M2947.36 3175.95C2955.72 3173.86 2959.33 3173.59 2966.29 3168.88C2972.03 3158.06 2969.61 3096.01 2970.2 3079.66C2970.51 3070.97 2968.77 3056.28 2961.56 3049.45C2957.35 3048.31 2956.1 3048 2952.01 3046.4L2954.04 3044.3L2959.23 3044.61C2972.59 3048.03 2981.31 3045.85 2988.16 3047.51C2987 3056.76 2986.44 3143.97 2989.03 3147.48C2989.33 3155.28 2988.67 3162.67 2992.81 3169.07C2998.19 3172.99 2997.94 3172.69 3004.45 3174.42C2985.37 3176.95 2966.16 3174.84 2947.36 3175.95Z"/><path fill="#171516" fill-opacity="0.98039216" transform="matrix(1.78247 0 0 1.78247 0 -0.00012207)" d="M1976.45 3043.8C2003.29 3043.75 2082.3 3041.99 2105.58 3044.43C2107.42 3048.89 2107.07 3047.25 2107.09 3052.33C2098.9 3044.33 2092.93 3046.03 2082.45 3047.88C2070.12 3048.67 2063.85 3048.29 2051.61 3047.47C2043.15 3046.14 2040.73 3046.67 2032.02 3047.47C1983.64 3050.18 1991.52 3044.72 1976.24 3087.47C1976.22 3073.08 1975.99 3058.13 1976.45 3043.8Z"/><path fill="#171516" fill-opacity="0.94901961" transform="matrix(1.78247 0 0 1.78247 0 -0.00012207)" d="M1253.77 3119.1C1262.68 3104.27 1286.81 3070.19 1285.09 3056.41C1279.84 3050.11 1278.3 3049.7 1270.98 3045.52C1277.83 3042.82 1308.88 3042.76 1315.49 3045.43C1312.08 3050.55 1311.27 3049.01 1307.11 3051.39C1287.69 3062.53 1272.79 3100.33 1258.04 3120.49L1253.77 3119.1Z"/><path fill="#171516" fill-opacity="0.95686275" transform="matrix(1.78247 0 0 1.78247 0 -0.00012207)" d="M825.571 3098.93C833.635 3088.84 851.841 3067.72 856.489 3056.51L855.969 3053.12C850.109 3049.25 847.465 3048.96 840.785 3047.19L840.47 3044.85C857.201 3042.82 882.903 3043.71 900.385 3043.8C857.945 3057.56 856.976 3067.13 828.66 3102.98L825.571 3098.93Z"/><path fill="#171516" fill-opacity="0.98431373" transform="matrix(1.78247 0 0 1.78247 0 -0.00012207)" d="M2118.11 3046.22C2131.57 3041.36 2198.7 3043.91 2216.57 3043.81C2217.83 3058.18 2219.78 3075.3 2220.38 3089.5C2203.04 3044.89 2205.43 3049.88 2157.53 3047.5C2151.43 3046.45 2125.37 3046.36 2118.11 3046.22Z"/><path fill="#171516" fill-opacity="0.98823529" transform="matrix(1.78247 0 0 1.78247 0 -0.00012207)" d="M2959.23 3044.61C2986.75 3042.91 3019.81 3043.73 3047.82 3043.81C3049.63 3059.85 3050.96 3072.64 3051.45 3088.72C3036.03 3044.46 3033.57 3049.27 2988.16 3047.51C2981.31 3045.85 2972.59 3048.03 2959.23 3044.61Z"/><path fill="#171516" fill-opacity="0.97647059" transform="matrix(1.78247 0 0 1.78247 0 -0.00012207)" d="M1887.29 3047.82C1902.78 3036.97 1919 3040.16 1934.06 3049.8L1939.47 3053.2C1945.2 3049.34 1942.67 3051.21 1946.32 3043.76L1949.31 3045.75C1950.43 3059.62 1949.56 3074.7 1949.1 3088.71C1940.17 3064.16 1919.46 3026.79 1889.81 3054.42L1887.29 3047.82Z"/><path fill="#171516" transform="matrix(1.78247 0 0 1.78247 0 -0.00012207)" d="M2196.59 3173.55C2222.22 3163.4 2222.08 3149.16 2231.91 3125.18C2231.39 3142.4 2230.53 3159.6 2229.33 3176.78C2218.17 3174.04 2207.71 3178.16 2196.59 3173.55Z"/><path fill="#171516" transform="matrix(1.78247 0 0 1.78247 0 -0.00012207)" d="M1768.76 3173.76C1794.92 3163.18 1794.1 3149 1804.3 3125.58C1803.77 3142.66 1802.89 3159.72 1801.66 3176.75C1790.67 3174.11 1779.68 3177.79 1768.76 3173.76Z"/><path fill="#171516" transform="matrix(1.78247 0 0 1.78247 0 -0.00012207)" d="M3063.35 3125.65C3062.99 3143.47 3061.9 3159.01 3060.51 3176.76C3048.54 3174.22 3039.17 3177.96 3028.53 3173.4C3052.93 3163.61 3054.57 3149.04 3063.35 3125.65Z"/><path fill="#171516" transform="matrix(1.78247 0 0 1.78247 0 -0.00012207)" d="M2636.86 3173.86C2658.55 3163.3 2659.83 3151.3 2667.8 3128.44C2668.25 3144.54 2668.25 3160.66 2667.79 3176.77C2656.88 3174.22 2648.99 3177.73 2636.86 3173.86Z"/><path fill="#171516" transform="matrix(1.78247 0 0 1.78247 0 -0.00012207)" d="M562.852 3173.84C584.522 3163.27 585.785 3151.28 593.759 3128.42C594.208 3144.53 594.204 3160.64 593.747 3176.75C582.915 3174.18 575.011 3177.71 562.852 3173.84Z"/><path fill="#171516" transform="matrix(1.78247 0 0 1.78247 0 -0.00012207)" d="M777.068 3157.77C779.088 3160.68 780.159 3161.56 781.236 3164.77C789.087 3174.09 791.964 3168.66 797.938 3175.98L797.453 3178.19C778.195 3178.84 755.564 3177.99 736.065 3177.73C755.653 3170.64 760.821 3172.98 777.068 3157.77Z"/><path fill="#171516" transform="matrix(1.78247 0 0 1.78247 0 -0.00012207)" d="M2523.45 3060.54C2528.31 3049.81 2529.27 3042.56 2533.22 3033.25C2533.71 3056.48 2534.69 3081.3 2534.13 3104.41C2530.75 3093.75 2525.75 3076.19 2521.06 3066.69L2523.45 3060.54Z"/><path fill="#171516" fill-opacity="0.98039216" transform="matrix(1.78247 0 0 1.78247 0 -0.00012207)" d="M527.391 3174.12C535.677 3173.09 554.662 3172.58 562.852 3173.84C575.011 3177.71 582.915 3174.18 593.747 3176.75C584.947 3179.5 496.314 3177.86 481.273 3177.71L479.668 3174.9C485.051 3172.4 485.727 3173.55 492.51 3174.04C499.195 3176.58 520.724 3176.58 527.391 3174.12Z"/><path fill="#171516" transform="matrix(1.78247 0 0 1.78247 0 -0.00012207)" d="M2533.46 3119.05C2534.17 3133.13 2535.68 3160.28 2533.55 3173.71L2531.41 3174.08C2529.09 3170.2 2526.38 3165.08 2523.54 3161.77L2519.1 3157.65C2527.24 3142.65 2528.83 3135.49 2533.46 3119.05Z"/><path fill="#171516" fill-opacity="0.98039216" transform="matrix(1.78247 0 0 1.78247 0 -0.00012207)" d="M2604.28 3174.13C2613.65 3173.53 2627.9 3172.47 2636.86 3173.86C2648.99 3177.73 2656.88 3174.22 2667.79 3176.77C2658.86 3179.51 2570.55 3177.87 2555.27 3177.71L2553.72 3174.92C2559.03 3172.38 2559.78 3173.55 2566.55 3174.04C2572.75 3176.39 2598.33 3176.76 2604.28 3174.13Z"/><path fill="#171516" transform="matrix(1.78247 0 0 1.78247 0 -0.00012207)" d="M3009.19 3105.66C3021.77 3100.15 3018.56 3101.58 3025.99 3086.65L3027.23 3087.15C3027.87 3098.27 3029.63 3119.16 3026.6 3129.16L3024.73 3129.15C3021.15 3117.49 3022.38 3113.07 3010.43 3108.49L3009.19 3105.66Z"/><path fill="#171516" transform="matrix(1.78247 0 0 1.78247 0 -0.00012207)" d="M2177.06 3105.53C2196.69 3097.95 2189.45 3091.36 2196.04 3073.52L2196.26 3140.61C2190.7 3125.09 2194.16 3114.84 2178.5 3108.44L2177.06 3105.53Z"/><path fill="#171516" fill-opacity="0.98039216" transform="matrix(1.78247 0 0 1.78247 0 -0.00012207)" d="M1738.19 3173.9C1744.72 3173.61 1763.16 3172.63 1768.76 3173.76C1779.68 3177.79 1790.67 3174.11 1801.66 3176.75C1790.78 3179.32 1699.99 3179.35 1687.9 3175.75C1697.28 3175.76 1732.31 3177.04 1738.19 3173.9Z"/><path fill="#171516" fill-opacity="0.98039216" transform="matrix(1.78247 0 0 1.78247 0 -0.00012207)" d="M2166.04 3173.72C2171.98 3173.61 2191.84 3172.82 2196.59 3173.55C2207.71 3178.16 2218.17 3174.04 2229.33 3176.78C2218.68 3179.39 2127.72 3179.23 2115.64 3175.76C2125.35 3175.44 2160.66 3176.99 2166.04 3173.72Z"/><path fill="#171516" fill-opacity="0.97254902" transform="matrix(1.78247 0 0 1.78247 0 -0.00012207)" d="M1690.61 3046.23C1700.56 3042.32 1781.45 3042.4 1789.46 3045.15C1782.57 3046.15 1771.72 3046.33 1766.6 3048.51C1757.89 3049.31 1738.7 3048.08 1729.87 3047.4C1724.13 3046.14 1698.05 3046.3 1690.61 3046.23Z"/><path fill="#171516" fill-opacity="0.98039216" transform="matrix(1.78247 0 0 1.78247 0 -0.00012207)" d="M3004.45 3174.42C3012.35 3172.78 3020.39 3173.32 3028.53 3173.4C3039.17 3177.96 3048.54 3174.22 3060.51 3176.76C3048.11 3179.28 2960.33 3179.24 2947.36 3175.95C2966.16 3174.84 2985.37 3176.95 3004.45 3174.42Z"/><path fill="#171516" transform="matrix(1.78247 0 0 1.78247 0 -0.00012207)" d="M1789.46 3045.15C1790.54 3059.27 1792.19 3075.73 1792.23 3089.66C1785.88 3071.94 1784.77 3057.04 1766.6 3048.51C1771.72 3046.33 1782.57 3046.15 1789.46 3045.15Z"/><path fill="#171516" fill-opacity="0.90588236" transform="matrix(1.78247 0 0 1.78247 0 -0.00012207)" d="M812.299 3114.73L816.427 3117.77C806.919 3129.21 786.519 3152.15 781.236 3164.77C780.159 3161.56 779.088 3160.68 777.068 3157.77C784.674 3146.69 803.06 3125.87 812.299 3114.73Z"/><path fill="#171516" fill-opacity="0.88627452" transform="matrix(1.78247 0 0 1.78247 0 -0.00012207)" d="M2989.03 3147.48C2986.44 3143.97 2987 3056.76 2988.16 3047.51L2988.36 3049.5C2989.44 3061.79 2988.49 3095.43 2990.14 3103C2995.22 3103.89 3005.66 3104.77 3009.19 3105.66L3010.43 3108.49C3000.93 3110.19 2998.89 3110.12 2989.11 3109.88L2989.03 3147.48Z"/><path fill="#171516" fill-opacity="0.97647059" transform="matrix(1.78247 0 0 1.78247 0 -0.00012207)" d="M1078.71 3047.79C1072.23 3049.11 1068.25 3049.25 1062.81 3045.86C1069.07 3040.89 1121.75 3042.07 1132.72 3042.76L1120.52 3046.88C1115.58 3047.3 1109.03 3046.85 1103.94 3046.69C1100.33 3043.22 1084.58 3044.66 1079.9 3045.79L1078.71 3047.79Z"/><defs><linearGradient id="gradient_1" gradientUnits="userSpaceOnUse" x1="2092.6621" y1="3062.1711" x2="2104.6462" y2="3050.7854"><stop offset="0" stop-color="#231F20" stop-opacity="0.9254902"/><stop offset="1" stop-color="#231F20"/></linearGradient></defs><path fill="url(#gradient_1)" transform="matrix(1.78247 0 0 1.78247 0 -0.00012207)" d="M2082.45 3047.88C2092.93 3046.03 2098.9 3044.33 2107.09 3052.33C2107.56 3063.9 2107.56 3076.19 2107.75 3087.82C2100.19 3069.57 2103.68 3054.75 2082.45 3047.88Z"/><path fill="#171516" fill-opacity="0.97254902" transform="matrix(1.78247 0 0 1.78247 0 -0.00012207)" d="M2569.17 3047.98C2562.71 3048.64 2560.4 3049.48 2554.4 3046.19L2555.87 3044.58C2571.88 3043.92 2603.1 3041.58 2617.34 3045.33L2617.8 3046.93C2608.67 3048.77 2608.05 3048.84 2598.86 3048.01C2592.41 3045.45 2575.21 3045.39 2569.17 3047.98Z"/><path fill="#171516" fill-opacity="0.97254902" transform="matrix(1.78247 0 0 1.78247 0 -0.00012207)" d="M495.155 3047.99C488.243 3048.71 486.387 3049.47 480.033 3045.77C486.523 3042.6 532.045 3044.1 541.251 3044.49L543.287 3046C535.393 3049.5 533.849 3048.77 524.86 3048.01C518.4 3045.44 501.202 3045.38 495.155 3047.99Z"/><path fill="#171516" fill-opacity="0.98039216" transform="matrix(1.78247 0 0 1.78247 0 -0.00012207)" d="M2058.97 3174.02C2065.2 3173.19 2069.58 3172.53 2074.73 3176.07C2067.31 3179.4 2019.36 3177.57 2009.82 3177.24L2008.66 3175.77C2015.4 3172.33 2017.37 3173.17 2024.46 3174.15C2030.47 3176.21 2053.56 3176.85 2058.97 3174.02Z"/><path fill="#171516" fill-opacity="0.97254902" transform="matrix(1.78247 0 0 1.78247 0 -0.00012207)" d="M609.094 3047.98C602.079 3048.63 599.432 3049.58 592.989 3045.88C599.449 3042.46 642.982 3044.06 652.107 3044.57L653.82 3045.82C647.592 3049.42 646.015 3048.68 638.902 3047.92C633.58 3045.36 614.176 3045.09 609.094 3047.98Z"/><path fill="#171516" fill-opacity="0.98039216" transform="matrix(1.78247 0 0 1.78247 0 -0.00012207)" d="M1117.24 3174.66C1121.96 3173.16 1120.1 3173.34 1125.08 3174.35L1124.6 3176.66C1116.35 3179.05 1068.2 3178.94 1062.06 3176.07C1068.87 3172.45 1066.4 3173.48 1075.11 3174.08C1081.99 3177.15 1108.85 3175.53 1117.24 3174.66Z"/><path fill="#171516" fill-opacity="0.98039216" transform="matrix(1.78247 0 0 1.78247 0 -0.00012207)" d="M3123.25 3174.06L3131.74 3173.06L3133.49 3174.87L3137.47 3173.61L3135.37 3173.61L3137.84 3175.43C3123.57 3179.04 3084.86 3180.48 3072.3 3175.7C3082.26 3175.67 3117.84 3176.94 3123.25 3174.06Z"/><path fill="#171516" transform="matrix(1.78247 0 0 1.78247 0 -0.00012207)" d="M1762.62 3100.3L1768.94 3099.96L1768.72 3111.46L1762.45 3113.71L1753.95 3109.69L1749.49 3107.81L1750.23 3105.19L1762.62 3100.3Z"/><path fill="#171516" fill-opacity="0.97254902" transform="matrix(1.78247 0 0 1.78247 0 -0.00012207)" d="M917.27 3044.21C925.396 3043.92 958.578 3042.11 964.415 3046.96L964.476 3047.69C959.334 3048.14 955.801 3048.72 950.648 3047.91C946.732 3045.12 929.454 3047.81 917.27 3044.21Z"/><path fill="#171516" fill-opacity="0.97254902" transform="matrix(1.78247 0 0 1.78247 0 -0.00012207)" d="M1551.02 3047.98C1545.45 3048.76 1545.51 3048.61 1539.89 3047.73L1540.38 3045.74C1553.59 3042.98 1565.1 3042.65 1578.42 3045.14C1570.98 3046.25 1554.1 3046.13 1551.02 3047.98Z"/><path fill="#171516" fill-opacity="0.88627452" transform="matrix(1.78247 0 0 1.78247 0 -0.00012207)" d="M1731.22 3105.19C1740.38 3103.96 1741.33 3103.6 1750.23 3105.19L1749.49 3107.81L1753.95 3109.69L1730.31 3109.92L1731.22 3105.19Z"/><path fill="#171516" fill-opacity="0.88627452" transform="matrix(1.78247 0 0 1.78247 0 -0.00012207)" d="M2158.95 3105.35C2167.87 3103.9 2168.44 3103.61 2177.06 3105.53L2178.5 3108.44C2171.78 3110.17 2165.32 3109.75 2158.29 3109.86L2158.95 3105.35Z"/><path fill="#171516" fill-opacity="0.98823529" transform="matrix(1.78247 0 0 1.78247 0 -0.00012207)" d="M1762.45 3113.71L1768.72 3111.46C1768.82 3117.81 1769.91 3123.81 1766.47 3128.66C1762.38 3123.61 1763.45 3121.37 1762.45 3113.71Z"/><path fill="#171516" fill-opacity="0.98039216" transform="matrix(1.78247 0 0 1.78247 0 -0.00012207)" d="M1762.62 3100.3C1763.66 3092.82 1762.65 3090.49 1766.69 3085.58C1769.72 3091.26 1769.11 3093.56 1768.94 3099.96L1762.62 3100.3Z"/></svg>