<?xml version="1.0" encoding="UTF-8"?>
<svg id="uuid-36844ad6-18cb-4bba-a6b6-14a4205846e3" data-name="Layer 1" xmlns="http://www.w3.org/2000/svg" viewBox="0 0 5908.253 3399.055">
  <path d="M2170.742,1250.8l-.214-330.488c-.018-67.663-2.602-155.342,3.244-220.456,15.864-173.47,90.211-336.423,210.848-462.1C2526.558,89.597,2721.668,4.09,2926.794.146c203.879-3.961,401.038,72.992,548.324,214.025,145.218,138.158,230.242,327.901,236.694,528.233,123.793-33.92,235.928,16.31,293.52,131.154-57.2,81.102-119.301,161.242-172.65,244.733-36.505,57.146-61.192,124.755-98.464,181.776-116.288,187.159-285.035,309.811-503.726,347.136-55.381,9.447-99.426,10.713-155.164,12.62-15.009,1.283-57.966-3.939-74.632-5.437-91.494-8.271-171.456-32.352-257.781-60.265-85.345-27.004-169.513-57.538-252.326-91.512-106.592-43.563-210.617-91.191-319.864-128.195-187.142-51.941-319.454-43.261-507.826-25.382,172.115-76.236,322.074-99.604,507.843-98.232Z" fill="#e5bf73"/>
  <path d="M2334.961,705.97c286.104-179.245,613.384-179.495,896.297-1.052,87.555,55.239,154.772,120.335,255.588,155.235,104.899-16.791,116.805-81.548,224.965-117.75,123.793-33.92,235.928,16.31,293.52,131.154-57.2,81.102-119.301,161.242-172.65,244.733-36.505,57.146-61.192,124.755-98.464,181.776-116.288,187.159-285.035,309.811-503.726,347.136-55.381,9.447-99.426,10.713-155.164,12.62-15.009,1.283-57.966-3.939-74.632-5.437-91.494-8.271-171.456-32.352-257.781-60.265-85.345-27.004-169.513-57.538-252.326-91.512-106.592-43.563-210.617-91.191-319.864-128.195-187.142-51.941-319.454-43.261-507.826-25.382,172.115-76.236,322.074-99.604,507.843-98.232,46.594,1.765,93.081,5.971,139.247,12.567,107.572,15.935,404.514,82.332,497.826,22.548,55.613-35.614,110.834-108.392,125.129-173.381,11.604-52.743-2.37-106.467-31.888-150.743-104.702-157.071-389.666-220.331-566.095-255.82Z" fill="#fbfbfb"/>
  <path d="M2170.724,1374.414c109.248,37.004,213.273,84.632,319.864,128.195,82.813,33.974,166.982,64.508,252.326,91.512,86.325,27.913,166.286,51.995,257.781,60.265,16.666,1.497,59.624,6.72,74.632,5.437,234.68,27.735,483.37-47.164,638.16-231.24v696.019h-1542.746l-.018-750.188Z" fill="#e5bf73"/>
  <path d="M4278.193,2238.449l3.904-.178c71.495-2.692,179.584-4.991,235.322,47.253,53.225,49.909,50.194,147.018-.659,197.479-50.872,50.462-155.182,42.156-221.847,42.066.071,56.201-10.962,162.312,14.224,214.698,6.15,12.798,27.236,14.812,40.623,16.666,9.679-.303,12.691.018,22.352,1.176,8.805,7.807,7.219,3.316,8.413,12.549-14.848,7.148-218.049,5.365-242.469,2.959l-1.479-9.269c7.575-11.033,45.667-2.834,72.172-25.347,16.024-44.793,11.105-382.785,4.189-450.341-3.725-36.309-56.326-18.716-74.382-28.324-1.568-11.408-3.369-8.217.624-15.739,33.564-4.545,102.67-4.652,139.015-5.651ZM4294.912,2504.465c51.389.196,105.291,5.847,145.557-29.928,18.199-23.012,29.393-42.815,31.353-72.707,8.788-133.614-67.77-146.359-176.91-143.364v245.999Z" fill="#fbfbfb"/>
  <path d="M4754.807,2233.94c28.27,3.547,35.329,54.793,46.933,79.748,63.296,136.127,113.044,279.456,178.568,414.335,12.05,24.812,41.175,17.878,55.613,36.416l-1.105,8.663v-.018c-24.74,2.87-190.189,4.545-207.854-.481l-1.123-8.663c31.265-28.573,100.888,23.368,40.177-107.127-10.82-23.279-22.834-53.831-33.172-77.983h-200.956c-14.99,35.81-37.842,84.293-43.207,122.01-7.629,53.777,38.822,42.405,56.861,65.007l-.873,7.593c-27.13,2.317-146.002,10.748-158.444-11.622,6.132-7.843,15.418-6.97,27.04-12.174,11.782-5.276,30.053-19.037,35.792-30.213,24.901-48.447,47.307-106.021,68.358-156.287l137.392-329.205ZM4639.588,2560.952h186.589c-12.816-31.478-79.819-205.305-95.13-222.078l-91.459,222.078Z" fill="#fbfbfb"/>
  <path d="M1727.318,2234.403c7.468,1.123,14.741.392,17.825,7.486,12.673,29.179,26.06,61.424,38.234,90.443l111.547,266.283c16.47,39.179,32.084,78.197,50.498,116.502,12.05,25.079,59.41,41.835,62.279,57.36-4.92.677-24.955,3.048-29.233,2.513-23.546-3.012-171.028,4.795-181.295-5.115l1.034-6.471c51.656-32.013,93.58,19.625,40.819-104.969-10.98-25.917-22.37-53.545-33.368-79.605h-201.277c-14.812,35.097-52.03,110.282-40.961,147.036,8.075,26.773,44.294,28.466,72.03,40.498l4.082,1.8c-25.596,6.328-170.386,12.371-180.208,2.246,9.59-14.973,59.249-41.086,67.217-58.037,19.5-41.496,39.107-91.441,56.754-133.632l144.024-344.338ZM1612.009,2560.952h186.571c-11.444-27.931-83.081-210.01-95.166-222.149l-91.405,222.149Z" fill="#fbfbfb"/>
  <path d="M3254.645,2234.599c1.89.232,7.397.802,8.984,1.444,22.78,9.197,178.728,425.404,212.702,484.493,10.41,18.11,21.39,26.63,41.478,32.102,6.72,1.836,11.64,2.745,17.343,6.934,1.39,9.928,2.709,5.811-1.39,13.297-34.936,4.26-164.771,2.62-204.199,1.158l-3.387-6.149,1.943-6.149c42.512-28.234,94.222,24.384,38.091-104.934-10.908-25.133-22.067-52.583-32.833-77.965h-201.348c-15.151,36.22-53.403,113.472-39.749,149.657,9.269,24.598,44.972,25.899,70.996,37.663l3.725,1.729c-34.455,11.051-166.394,9.911-201.348,1.444,30.516-16.738,66.112-19.679,83.402-51.514,28.217-51.887,49.588-108.695,72.404-163.345l133.186-319.864ZM3139.301,2560.952h187.373c-29.179-70.211-62.761-157.784-94.096-225.5-30.783,74.739-61.513,151.332-93.277,225.5Z" fill="#fbfbfb"/>
  <path d="M894.198,2244.296c38.519-4.242,121.269-1.925,163.023-1.8,102.209,138.587,210.148,276.836,313.556,415.102l.419-239.529c.039-35.739,1.207-73.206-.797-108.731-2.447-43.421-73.142-41.21-89.648-59.891l2.429-5.33c43.865-1.907,176.338-6.809,212.005,5.508-30.462,17.753-91.316,12.567-100.175,55.061-6.809,32.744-4.527,74.293-4.492,108.338l.517,249.136c.071,33.19,2.371,110.407-3.815,139.425-13.331-14.366-29.569-36.754-41.847-52.779-113.591-142.633-237.122-313.59-347.07-460.341l-.061,280.276c-.034,42.583-1.169,85.701-.246,128.231,1.232,56.754,79.582,51.478,93.706,68.768l-2.469,6.292c-41.671,2.317-184.026,7.843-216.903-6.471,27.922-15.097,76.931-10.659,96.736-37.788,14.499-19.857,14.415-411.055,1.7-442.106-13.877-33.903-43.095-15.65-67.992-27.111-5.497-2.531-6.338-9.019-8.579-14.26Z" fill="#fbfbfb"/>
  <path d="M3502.943,2244.367c21.229-3.743,220.741-2.371,245.642-.071l3.672,6.381-2.531,6.666c-14.331,6.809-30.427,3.03-45.756,5.24-10.089,1.444-20.873,6.524-26.274,15.597-19.019,32.013-11.354,329.472-2.175,377.313,6.435,33.546,19.393,56.54,48.679,75.381,43.332,27.914,104.899,31.14,154.184,18.591,40.551-10.338,75.826-32.565,96.503-69.766,11.229-20.196,16.292-42.12,18.965-64.864,5.419-46.238,7.219-277.37-3.993-312.592-13.886-43.635-59.481-33.671-92.528-50.783-1.087-.571-2.157-1.194-3.244-1.782,27.058-7.896,35.168-7.183,62.779-7.183,38.804-.374,124.149-4.688,158.034,7.237-41.71,23.404-57.716,1.123-94.292,49.606-18.645,94.987,12.976,275.07-17.735,372.839-12.192,38.787-47.521,72.333-84.667,89.159-63.046,28.573-159.014,29.054-223.094,4.153-113.115-43.956-104.577-138.088-103.918-236.89l1.016-159.21c-.054-178.924-64.65-66.682-89.266-125.022Z" fill="#fbfbfb"/>
  <path d="M1965.99,2242.496h516.292c.428,36.024,6.88,119.033-4.153,148.623-27.308-52.298-20.641-132.295-101.565-130.281-37.254.927-76.664,0-114.149.196l-.214,280.276c-.018,47.093-3.298,152.597,7.344,193.148,27.593,30.873,71.406,11.372,87.074,33.76l-3.405,4.064c-31.728,1.533-252.736,6.149-262.433-3.618l.374-7.646c16.327-12.638,89.052,10.231,93.526-55.685,2.977-44.08,1.355-88.41,1.355-132.651l-.107-311.647c-128.641.926-176.304-26.702-208.05,107.661-.838,3.583-3.832,2.638-6.417,2.407-13.012-16.88-6.381-101.797-5.472-128.605Z" fill="#fbfbfb"/>
  <path d="M2518.574,2244.314c28.698-3.333,230.153-3.832,256.497,1.551l3.119,6.345c-18.449,13.28-91.262,2.888-92.1,46.202-2.477,128.356-1.533,256.979-.731,385.406.962,11.425,1.747,51.585,11.639,57.288,42.94,24.759,122.099,13.832,168.871,9.287,31.354-3.048,55.274-39.499,68.322-62.832,11.729-20.944,17.237-49.285,30.961-68.607l9.447-1.408,5.312,3.458-3.69,152.882c-49.642-.018-437.151,5.472-451.464-4.652l1.158-7.878c19.999-15.08,74.115,1.729,78.037-41.46,6.56-71.976,3.707-145.521,4.082-217.925.339-67.11,1.265-135.557-2.87-202.453-3.529-43.956-41.995-35.257-72.493-39.036-9.465-1.195-10.499-8.449-14.099-16.167Z" fill="#fbfbfb"/>
  <path d="M2200.75,3142.558c35.899-2.513,62.369-4.474,96.253,12.763,28.733,14.313,50.426,39.678,60.087,70.283,24.527,78.037-18.003,137.09-91.548,160.814-31.692,3.904-62.636,3.975-92.279-9.322-31.318-13.814-55.292-40.284-65.916-72.831-25.81-78.874,18.074-139.46,93.401-161.706ZM2244.153,3379.644c25.044-5.668,47.2-15.026,59.445-38.751,39.232-76.04,21.568-197.248-85.149-191.116-24.455,5.651-47.717,15.579-59.071,39.107-38.109,78.981-22.085,193.487,84.774,190.76Z" fill="#fbfbfb"/>
  <path d="M4522.078,3142.415c34.509-2.389,59.802-4.011,92.492,11.8,28.734,13.583,50.783,38.163,61.192,68.179,26.755,77.912-15.169,138.73-88.803,163.702-35.328,4.224-65.862,5.045-98.552-11.158-30.267-14.902-52.868-41.835-62.298-74.222-23.154-79.017,20.766-137.357,95.968-158.301ZM4565.018,3379.537c24.651-5.882,46.469-15.312,58.5-38.769,38.858-75.791,21.924-195.84-84.025-191.099-25.008,5.419-48.18,14.902-60.033,38.769-38.929,78.411-22.245,195.377,85.559,191.099Z" fill="#fbfbfb"/>
  <path d="M0,2959.822c90.84-3.137,195.152-.802,287.283-.784l524.467.054,1597.819-.018,2340.276-.018,799.509.036c110.014.071,220.295.677,330.292-.588,16.149-.196,19.839-.963,28.608,8.092l-4077.721-.018-1253.51-.036H187.65c-42.564.018-145.813,2.994-183.074-.927l-4.576-5.793Z" fill="#fbfbfb"/>
  <path d="M5125.961,3380.179c14.759-5.098,22.013-1.675,36.505-11.604,12.263-23.653,10.534-189.672-6.845-213.682-7.861-1.23-13.796-2.442-21.55-4.225l.873-4.581c21.889-7.148,62.119-2.014,85.808-5.187,91.28-12.157,161.616,93.526,44.027,122.188l-4.616,1.087c63.028,60.123,49.856,94.72,143.417,119.479l-85.309.553c-24.046-23.814-81.37-119.283-109.764-110.816-10.82,18.787-9.394,85.184,8.27,103.865-9.643,5.133-73.063,2.87-90.817,2.923ZM5203.606,3260.201c29.731-.552,44.401,1.07,70.532-14.278,35.507-70.301-4.528-95.273-70.532-94.453v108.731Z" fill="#fbfbfb"/>
  <path d="M3678.703,3143.912c50.069-1.907,157.107-14.705,160.743,57.806,3.725,74.525-63.848,70.033-117.144,70.247-.143,33.279-1.141,65.702,3.333,98.731,10.303,2.621,24.277,3.94,29.161,10.873-16.488,5.668-100.692,2.602-123.9,2.282,12.21-3.975,50.818-9.215,52.583-21.407,4.777-32.958,10.516-174.129-.499-198.942-14.224-13.261-23.778-6.844-32.459-15.685,7.753-3.94,18.662-3.298,28.181-3.904ZM3789.519,3248.401c37.129-66.326-.642-97.501-67.217-96.111-.374,31.05-6.916,84.382,8.663,107.732,20.017,9.572,41.318,1.301,58.554-11.622Z" fill="#fbfbfb"/>
  <path d="M1668.718,3143.217c90.514,20.712,91.459,95.184,3.191,122.278,31.675,28.947,50.587,62.065,79.766,92.671,9.679,10.16,40.088,16.559,43.171,24.58-23.422,1.925-41.745,1.712-65.185,1.462-27.379-26.826-76.967-112.973-108.873-114.31-14.688,15.971-7.379,79.587,1.586,98.945,8.217,7.344,7.932,6.649,18.752,9.482-14.955,1.551-62.832,4.438-75.095-1.034,1.907-1.925,9.251-9.216,9.732-11.568,7.772-38.502,8.788-185.163-3.315-213.54l2.121-3.565c8.342-2.014,36.416-4.581,42.85,1.604-4.902,18.128-2.745,86.913-2.602,109.96,25.792-.321,50.141,2.353,68.465-18.395,36.345-41.122,11.693-81.726-36.309-91.227l21.746-7.344Z" fill="#fbfbfb"/>
  <path d="M2543.323,3145.125l121.475.018c-17.308,6.399-36.362,10.463-48.483,22.762-10.499,34.063-3.565,184.628-5.383,231.151-59.748-77.038-117.269-155.431-176.536-232.612-.285,60.123-.945,120.78-.321,180.903.178,17.308,27.896,27.717,41.264,33.706-15.276,5.686-85.559,3.101-106.681,2.745,19.358-6.185,36.968-8.93,51.638-21.39,10.802-23.903,9.946-189.477-5.971-209.886,5.49-3.298,35.578-3.084,48.84-5.062l138.569,183.523c.25-31.906,4.385-143.846-5.775-166.251-14.83-10.82-34.616-13.226-52.636-19.607Z" fill="#fbfbfb"/>
  <path d="M1344.18,3152.397c-17.222,27.112-9.073,138.765-7.531,175.235,7.242,51.781,68.702,57.52,108.119,38.947,48.537-22.869,34.081-77.359,36.594-120.62,1.426-24.527,2.032-49.196-2.87-72.653-3.137-15.08-21.817-17.04-32.691-22.709l2.549-2.656c19.393-4.011,55.31-5.401,74.792-1.8l-.214,5.508c-12.887,5.223-31.193,15.222-31.817,32.299-4.207,115.397,27.397,238.673-147.674,195.644-76.657-18.859-25.302-153.809-48.927-215.34-6.643-7.647-19.814-11.23-29.853-15.169l-.478-3.173,7.681,3.333,3.273-5.044,9.551,1.604c21.718,6.417,52.515,1.622,59.495,6.595Z" fill="#fbfbfb"/>
  <path d="M4761.695,3142.522c58.822-6.31,64.632,19.946,81.227,19.625l7.807-16.042,5.205-.053c3.654,13.083,1.586,61.548,1.373,78.036-16.916-37.895-22.334-69.659-68.893-74.935-23.065-6.061-51.228,25.489-42.316,46.326,20.802,48.572,122.705,50.051,132.046,109.871,7.878,50.373-22.602,76.807-70.675,84.008-49.321-2.567-51.87-23.547-70.978-27.254-3.583,7.041-6.827,13.261-10.748,20.124l-4.955-3.173c-3.726-21.8-.695-67.538.125-91.476,19.5,49.143,35.382,118.606,110.709,83.348,13.636-6.381,26.844-32.851,19.679-47.432-22.227-45.15-85.559-48.412-116.609-86.485-33.938-38.216-13.191-71.138,27.004-94.488Z" fill="#fbfbfb"/>
  <path d="M788.502,3152.415l-.784,1.301c-18.525,29.678-3.039,76.967-8.504,104.97-31.282,160.244,162.043,157.285,146.9,11.247-4.449-42.94,20.443-102.136-34.462-118.267l.414-4.635c16.237-3.351,60.189-3.832,75.398.785l-1.276,3.921c-36.975,12.424-36.041,52.619-31.794,88.571,12.798,108.356-22.994,173.719-147.159,139.817-76.778-20.962-22.718-168.39-51.865-227.603,9.059-5.151,43.646-4.67,53.132-.107Z" fill="#fbfbfb"/>
  <path d="M1097.577,3271.502c-22.434-28.412-74.37-99.872-105.369-115.344-4.51-2.246-6.513-2.977-12.297-6.916l3.276-3.172c22.252-1.943,75.703-2.371,97.342.463l.135,4.688c-10.773,3.137-12.761,2.282-20.709,9.215,2.444,22.317,44.451,66.825,61.278,82.903l5.506,7.219,2.1,2.994c23.96,33.689,65.434,82.974,95.077,112.92,2.741,2.781,22.8,9.589,27.846,11.319l-.866,3.779c-16.7,3.779-101.783,4.884-115.404.571l1.153-4.759c8.561-2.335,14.889-3.707,23.611-5.383l4.93-5.437c-2.488-25.935-44.432-64.454-60.251-89.64l-7.358-5.419Z" fill="#fbfbfb"/>
  <path d="M4147.813,3355.349c-22.726,19.447-41.264,30.943-72.083,34.402-29.892,3.297-59.82-5.9-82.725-25.382-54.49-46.113-56.611-141.6-9.037-190.974,44.027-45.702,120.067-42.28,163.684,1.515l-4.26,10.962c-75.096-85.166-148.373-18.056-152.811,76.807-4.724,100.745,84.863,155.111,149.318,85.327l7.914,7.344Z" fill="#fbfbfb"/>
  <path d="M2988.281,3287.277c13.03,36.202,26.345,92.902,74.775,92.991,12.994.161,36.487-5.954,44.793-16.577,45.72-57.93-48.091-84.061-84.4-107.697-44.17-28.734-53.171-67.538-9.732-103.758l4.492,11.764c-20.267,52.476,39.143,72.297,78.446,88.375,86.45,35.4,50.141,157.57-39.535,133.846-14.046-3.726-46.54-23.048-54.365-21.372l-7.754,16.363-4.848,1.23c-7.486-10.766-2.531-77.68-1.871-95.166Z" fill="#fbfbfb"/>
  <path d="M1853.525,3292.535c-23.547-39.25-51.317-86.985-77.377-125.236-2.709-3.975-19.589-12.352-26.719-18.27l4.046-3.761c29.143-.41,60.141-1.533,89.016.873l2.175,3.85c-10.374,3.85-19.144,5.401-25.008,14.224,0,13.369,53.884,97.127,64.828,115.076l7.611,2.477c-5.312,10.036-5.686,37.86-6.702,50.23-1.497,18.716,12.584,33.457,24.883,45.667l3.583,3.494c-8.93,4.723-83.313,5.632-91.459.499,5.454-9.661,6.898-7.468,20.106-12.709,16.737-20.249,11.497-48.786,11.016-76.414Z" fill="#fbfbfb"/>
  <path d="M2663.14,3149.403c13.262.125,59.748-.161,69.98,2.085-.125,27.379-1.782,77.698,2.406,103.009l-1.622,8.431c-1.105,31.122-9.34,93.259,14.046,114.042-10.481,5.597-72.921,3.316-89.64,3.298,14.313-3.369,22.423-3.993,34.205-12.192,9.251-21.461,7.754-178.104,1.747-205.572-7.843-8.806-19.126-9.946-31.122-13.101Z" fill="#fbfbfb"/>
  <path d="M3425.146,3149.385c12.941.25,59.392.41,70.265,2.282-.125,27.539-1.818,77.644,2.531,103.116l-1.176,8.039c-1.729,29.589-10,95.219,13.814,113.828-9.59,5.829-72.529,3.066-89.837,3.636,14.278-3.404,22.834-3.975,34.099-12.656,9.519-19.981,7.95-177.748,1.622-205.198-8.823-9.037-18.734-9.857-31.318-13.048Z" fill="#fbfbfb"/>
  <path d="M4229.147,3152.522c10.766-4.617,41.425-4.51,52.922.054-14.991,29.072-10.053,170.208-5.793,209.155.802,7.29,8.895,12.085,15.454,15.65-10.606,4.688-56.201,4.028-67.253-.16,22.37-19.768,19.411-201.705,4.67-224.698Z" fill="#fbfbfb"/>
  <path d="M532.278,3152.54c10.779-4.652,41.434-4.545,52.948.036-2.553,4.866-7.805,15.294-7.52,20.623,2.014,37.931-13.434,182.151,12.032,204.164-11.884,4.385-50.258,4.385-62.174-.143,22.336-19.875,19.402-201.615,4.715-224.68Z" fill="#fbfbfb"/>
  <path d="M3271.693,3151.613c15.525-1.426,19.839-2.371,34.919,0-.232,38.715-9.643,202.043,10.891,223.539.695.731,1.497,1.355,2.228,2.032-9.643,5.045-50.8,3.904-61.513.232,1.07-1.051,2.192-2.05,3.191-3.172,20.374-23.03,10.517-182.561,10.285-222.631Z" fill="#fbfbfb"/>
  <path d="M4903.26,3380.624c14.901-3.725,21.336-4.206,33.742-12.602,10.231-19.286,5.918-129.888,6.969-159.032.553-15.49-2.549-41.674-15.4-53.848-7.504-2.032-9.732-2.584-17.023-5.437l3.618-3.743,9.251.553c23.814,6.096,39.357,2.21,51.567,5.169-2.068,16.488-3.066,171.937,1.551,178.193.535,13.903-.642,27.076,6.738,38.484,9.589,6.987,9.144,6.452,20.748,9.536-34.009,4.51-68.251.749-101.761,2.727Z" fill="#fbfbfb"/>
  <path d="M3172.641,3145.071c47.842-.089,188.675-3.226,230.171,1.123,3.279,7.95,2.656,5.027,2.692,14.082-14.599-14.26-25.24-11.23-43.92-7.932-21.978,1.408-33.154.731-54.971-.731-15.08-2.371-19.393-1.426-34.919,0-86.236,4.83-72.19-4.902-99.426,71.299-.036-25.65-.446-52.298.374-77.84Z" fill="rgba(251, 251, 251, .98)"/>
  <path d="M1884.486,3279.291c15.882-26.434,58.893-87.181,55.827-111.743-9.358-11.229-12.103-11.96-25.151-19.411,12.21-4.813,67.556-4.92,79.338-.161-6.078,9.126-7.522,6.381-14.937,10.623-34.616,19.857-61.174,87.234-87.466,123.169l-7.611-2.477Z" fill="rgba(251, 251, 251, .949)"/>
  <path d="M1121.234,3243.339c14.374-17.985,46.826-55.631,55.11-75.612l-.927-6.042c-10.445-6.898-15.158-7.415-27.065-10.57l-.561-4.171c29.823-3.618,75.636-2.032,106.797-1.872-75.648,24.527-77.375,41.585-127.848,105.486l-5.506-7.219Z" fill="rgba(251, 251, 251, .957)"/>
  <path d="M3425.146,3149.385c23.992-8.663,143.649-4.118,175.502-4.296,2.246,25.614,5.722,56.13,6.791,81.441-30.908-79.516-26.648-70.622-112.028-74.864-10.873-1.872-57.324-2.032-70.265-2.282Z" fill="rgba(251, 251, 251, .984)"/>
  <path d="M4924.417,3146.515c49.054-3.031,107.982-1.569,157.909-1.426,3.226,28.591,5.597,51.388,6.47,80.051-27.486-78.892-31.87-70.318-112.813-73.456-12.21-2.959-27.753.927-51.567-5.169Z" fill="rgba(251, 251, 251, .988)"/>
  <path d="M3013.716,3152.237c27.61-19.34,56.522-13.654,83.366,3.529l9.643,6.06c10.214-6.88,5.704-3.547,12.21-16.826l5.33,3.547c1.996,24.723.446,51.602-.374,76.575-15.917-43.76-52.832-110.37-105.682-61.121l-4.492-11.764Z" fill="rgba(251, 251, 251, .976)"/>
  <path d="M3565.034,3376.347c45.684-18.092,45.435-43.475,62.957-86.218-.927,30.694-2.46,61.353-4.598,91.976-19.893-4.884-38.537,2.46-58.358-5.757Z" fill="#fbfbfb"/>
  <path d="M2802.44,3376.721c46.629-18.859,45.168-44.134,63.349-85.879-.945,30.444-2.513,60.853-4.706,91.209-19.589-4.706-39.179,1.854-58.643-5.33Z" fill="#fbfbfb"/>
  <path d="M5110.008,3290.966c-.642,31.764-2.585,59.463-5.062,91.102-21.336-4.528-38.038,2.139-57.003-5.989,43.492-17.45,46.416-43.421,62.066-85.113Z" fill="#fbfbfb"/>
  <path d="M4349.803,3376.899c38.662-18.823,40.943-40.213,55.15-80.96.802,28.698.802,57.431-.018,86.147-19.447-4.545-33.511,1.711-55.132-5.187Z" fill="#fbfbfb"/>
  <path d="M652.945,3376.864c38.626-18.841,40.877-40.213,55.091-80.96.8,28.716.793,57.431-.021,86.147-19.308-4.581-33.396,1.711-55.069-5.187Z" fill="#fbfbfb"/>
  <path d="M1034.779,3348.219c3.601,5.187,5.51,6.756,7.429,12.477,13.994,16.613,19.122,6.934,29.771,19.981l-.864,3.939c-34.327,1.159-74.666-.356-109.422-.82,34.915-12.638,44.127-8.467,73.087-35.578Z" fill="#fbfbfb"/>
  <path d="M4147.652,3174.91c8.663-19.126,10.374-32.049,17.415-48.644.873,41.407,2.62,85.648,1.622,126.84-6.025-19.001-14.937-50.301-23.297-67.235l4.26-10.962Z" fill="#fbfbfb"/>
  <path d="M589.737,3377.363c14.77-1.836,48.61-2.745,63.208-.499,21.673,6.898,35.762.606,55.069,5.187-15.686,4.902-173.671,1.979-200.482,1.711l-2.861-5.009c9.595-4.456,10.8-2.406,22.89-1.533,11.916,4.528,50.291,4.528,62.174.143Z" fill="rgba(251, 251, 251, .98)"/>
  <path d="M4165.495,3279.202c1.265,25.097,3.957,73.491.161,97.43l-3.815.66c-4.135-6.916-8.966-16.042-14.028-21.942l-7.914-7.344c14.509-26.737,17.343-39.499,25.596-68.803Z" fill="#fbfbfb"/>
  <path d="M4291.73,3377.38c16.702-1.069,42.102-2.959,58.073-.481,21.621,6.898,35.685.641,55.132,5.187-15.917,4.884-173.327,1.961-200.564,1.675l-2.763-4.973c9.465-4.528,10.802-2.442,22.869-1.568,11.051,4.189,56.647,4.848,67.253.16Z" fill="rgba(251, 251, 251, .98)"/>
  <path d="M5013.469,3255.335c22.424-9.821,16.702-7.272,29.946-33.885l2.21.891c1.141,19.821,4.278,57.057-1.123,74.882l-3.333-.018c-6.381-20.783-4.189-28.662-25.489-36.826l-2.21-5.045Z" fill="#fbfbfb"/>
  <path d="M3530.223,3255.103c34.99-13.511,22.085-25.257,33.831-57.057l.392,119.586c-9.911-27.664-3.743-45.934-31.657-57.342l-2.567-5.187Z" fill="#fbfbfb"/>
  <path d="M2747.95,3376.97c11.64-.517,44.508-2.264,54.49-.249,19.465,7.183,39.054.624,58.643,5.33-19.393,4.581-181.224,4.635-202.774-1.782,16.72.018,79.16,2.299,89.64-3.298Z" fill="rgba(251, 251, 251, .98)"/>
  <path d="M3510.58,3376.65c10.588-.196,45.988-1.604,54.455-.303,19.821,8.217,38.465.873,58.358,5.757-18.984,4.652-181.117,4.367-202.649-1.818,17.308-.571,80.247,2.192,89.837-3.636Z" fill="rgba(251, 251, 251, .98)"/>
  <path d="M2663.14,3149.403c17.736-6.969,161.92-6.827,176.197-1.925-12.281,1.782-31.621,2.104-40.747,5.989-15.525,1.426-49.731-.766-65.47-1.979-10.231-2.246-56.718-1.96-69.98-2.085Z" fill="rgba(251, 251, 251, .973)"/>
  <path d="M5005.02,3377.897c14.082-2.923,28.412-1.96,42.922-1.818,18.965,8.128,35.667,1.462,57.003,5.989-22.102,4.492-178.568,4.42-201.686-1.444,33.51-1.978,67.752,1.782,101.761-2.727Z" fill="rgba(251, 251, 251, .98)"/>
  <path d="M2839.337,3147.477c1.925,25.169,4.866,54.508,4.937,79.338-11.319-31.585-13.297-58.144-45.685-73.348,9.126-3.886,28.466-4.207,40.747-5.989Z" fill="#fbfbfb"/>
  <path d="M1097.577,3271.502l7.358,5.419c-16.948,20.391-53.31,61.281-62.727,83.776-1.92-5.722-3.829-7.29-7.429-12.477,13.557-19.75,46.33-56.861,62.798-76.718Z" fill="rgba(251, 251, 251, .906)"/>
  <path d="M4977.535,3329.878c-4.617-6.256-3.618-161.706-1.551-178.193l.357,3.547c1.925,21.907.232,81.869,3.172,95.362,9.055,1.586,27.664,3.155,33.956,4.741l2.21,5.045c-16.933,3.03-20.57,2.906-38.002,2.477l-.143,67.021Z" fill="rgba(251, 251, 251, .886)"/>
  <path d="M1572.447,3152.183c-11.55,2.353-18.645,2.602-28.341-3.44,11.158-8.859,105.059-6.756,124.612-5.526l-21.746,7.344c-8.806.749-20.481-.053-29.553-.339-6.435-6.185-34.509-3.618-42.85-1.604l-2.121,3.565Z" fill="rgba(251, 251, 251, .976)"/>
  <path d="M3361.583,3152.343c18.68-3.297,29.322-6.327,43.92,7.932.838,20.623.838,42.529,1.176,63.26-13.476-32.53-7.255-58.946-45.097-71.192Z" fill="#fbfbfb"/>
  <path d="M4229.147,3152.522c-11.515,1.176-15.632,2.674-26.327-3.191l2.621-2.87c28.537-1.177,84.186-5.347,109.568,1.337l.82,2.852c-16.274,3.28-17.379,3.405-33.76,1.925-11.497-4.563-42.156-4.67-52.922-.054Z" fill="rgba(251, 251, 251, .973)"/>
  <path d="M532.278,3152.54c-12.32,1.283-15.629,2.638-26.955-3.957,11.568-5.65,92.71-2.977,109.119-2.282l3.629,2.692c-14.071,6.239-16.823,4.937-32.846,3.583-11.515-4.581-42.17-4.688-52.948-.036Z" fill="rgba(251, 251, 251, .973)"/>
  <path d="M3319.731,3377.184c11.105-1.48,18.912-2.656,28.092,3.654-13.226,5.935-98.695,2.674-115.7,2.085l-2.068-2.62c12.014-6.132,15.525-4.635,28.163-2.888,10.713,3.672,51.87,4.813,61.513-.232Z" fill="rgba(251, 251, 251, .98)"/>
  <path d="M735.37,3152.522c-12.504,1.158-17.222,2.852-28.707-3.743,11.515-6.096,89.111-3.244,105.376-2.335l3.053,2.228c-11.101,6.417-13.912,5.098-26.591,3.743-9.486-4.563-44.073-5.044-53.132.107Z" fill="rgba(251, 251, 251, .973)"/>
  <path d="M1641.125,3378.325c8.413-2.674,5.098-2.353,13.975-.552l-.856,4.117c-14.705,4.26-100.531,4.064-111.476-1.051,12.139-6.453,7.736-4.617,23.261-3.547,12.263,5.472,60.141,2.584,75.095,1.034Z" fill="rgba(251, 251, 251, .98)"/>
  <path d="M5216.778,3377.256l15.133-1.782,3.119,3.226,7.094-2.246h-3.743l4.403,3.244c-25.436,6.435-94.435,9.002-116.823.481,17.753-.054,81.174,2.21,90.817-2.923Z" fill="rgba(251, 251, 251, .98)"/>
  <path d="M2791.496,3245.781l11.265-.606-.392,20.498-11.176,4.011-15.151-7.166-7.95-3.351,1.319-4.67,22.085-8.716Z" fill="#fbfbfb"/>
  <path d="M1284.685,3145.802c14.484-.517,73.63-3.743,84.034,4.902l.109,1.301c-9.166.802-15.463,1.836-24.648.392-6.98-4.973-37.778-.178-59.495-6.595Z" fill="rgba(251, 251, 251, .973)"/>
  <path d="M2414.325,3152.522c-9.928,1.39-9.821,1.123-19.839-.446l.873-3.547c23.546-4.92,44.063-5.508,67.805-1.07-13.262,1.979-43.35,1.765-48.84,5.062Z" fill="rgba(251, 251, 251, .973)"/>
  <path d="M2735.526,3254.497c16.327-2.192,18.021-2.834,33.885,0l-1.319,4.67,7.95,3.351-42.137.41,1.622-8.431Z" fill="rgba(251, 251, 251, .886)"/>
  <path d="M3497.942,3254.782c15.9-2.585,16.916-3.101,32.281.321l2.567,5.187c-11.978,3.084-23.493,2.335-36.024,2.531l1.176-8.039Z" fill="rgba(251, 251, 251, .886)"/>
  <path d="M2791.193,3269.684l11.176-4.011c.178,11.319,2.121,22.014-4.011,30.658-7.29-9.001-5.383-12.994-7.166-26.648Z" fill="rgba(251, 251, 251, .988)"/>
  <path d="M2791.496,3245.781c1.854-13.333.054-17.486,7.255-26.238,5.401,10.124,4.314,14.224,4.011,25.632l-11.265.606Z" fill="rgba(251, 251, 251, .98)"/>
</svg>