<?xml version="1.0" encoding="UTF-8"?>
<svg id="uuid-d5d5b831-2e0d-4c27-b807-b871187df2ac" data-name="Layer 1" xmlns="http://www.w3.org/2000/svg" viewBox="0 0 2342.433 2124.602">
  <path d="M507.843,1250.8l-.214-330.488c-.018-67.663-2.602-155.342,3.244-220.456,15.864-173.47,90.211-336.423,210.848-462.1C863.66,89.597,1058.769,4.09,1263.896.146c203.879-3.961,401.038,72.992,548.324,214.025,145.218,138.158,230.242,327.901,236.694,528.233,123.793-33.92,235.928,16.31,293.52,131.154-57.2,81.102-119.301,161.242-172.65,244.733-36.505,57.146-61.192,124.755-98.464,181.776-116.288,187.159-285.035,309.811-503.726,347.136-55.381,9.447-99.426,10.713-155.164,12.62-15.009,1.283-57.966-3.939-74.632-5.437-91.494-8.271-171.456-32.352-257.781-60.265-85.345-27.004-169.513-57.538-252.326-91.512-106.592-43.563-210.617-91.191-319.864-128.195-187.142-51.941-319.454-43.261-507.826-25.382,172.115-76.236,322.074-99.604,507.843-98.232Z" fill="#e5bf73"/>
  <path d="M672.062,705.97c286.104-179.245,613.384-179.495,896.297-1.052,87.555,55.239,154.772,120.335,255.588,155.235,104.899-16.791,116.805-81.548,224.965-117.75,123.793-33.92,235.928,16.31,293.52,131.154-57.2,81.102-119.301,161.242-172.65,244.733-36.505,57.146-61.192,124.755-98.464,181.776-116.288,187.159-285.035,309.811-503.726,347.136-55.381,9.447-99.426,10.713-155.164,12.62-15.009,1.283-57.966-3.939-74.632-5.437-91.494-8.271-171.456-32.352-257.781-60.265-85.345-27.004-169.513-57.538-252.326-91.512-106.592-43.563-210.617-91.191-319.864-128.195-187.142-51.941-319.454-43.261-507.826-25.382,172.115-76.236,322.074-99.604,507.843-98.232,46.594,1.765,93.081,5.971,139.247,12.567,107.572,15.935,404.514,82.332,497.826,22.548,55.613-35.614,110.834-108.392,125.129-173.381,11.604-52.743-2.37-106.467-31.888-150.743-104.702-157.071-389.666-220.331-566.095-255.82Z"/>
  <path d="M507.826,1374.414c109.248,37.004,213.273,84.632,319.864,128.195,82.813,33.974,166.982,64.508,252.326,91.512,86.325,27.913,166.286,51.995,257.781,60.265,16.666,1.497,59.624,6.72,74.632,5.437,234.68,27.735,483.37-47.164,638.16-231.24v696.019H507.843l-.018-750.188Z" fill="#e5bf73"/>
</svg>